<svg width="160" height="36" viewBox="0 0 160 36" fill="none" xmlns="http://www.w3.org/2000/svg">
<path d="M30.1699 33.0152V26.3252" stroke="white" stroke-width="2.25" stroke-miterlimit="10" stroke-linecap="round" stroke-linejoin="round"/>
<path d="M30.5 18C28.8364 18 27.5 19.3224 27.5 20.9685V24.0315C27.5 25.6776 28.8364 27 30.5 27C32.1636 27 33.5 25.6776 33.5 24.0315V20.9685C33.5 19.3224 32.1636 18 30.5 18Z" fill="#E9E9E9"/>
<path d="M3.6499 33.0001V9.04517C3.6499 6.03017 5.14998 4.51514 8.13498 4.51514H17.4799C20.4649 4.51514 21.9499 6.03017 21.9499 9.04517V33.0001" stroke="white" stroke-width="2.25" stroke-miterlimit="10" stroke-linecap="round" stroke-linejoin="round"/>
<path d="M9.2002 12.375H16.6252" stroke="white" stroke-width="2.25" stroke-miterlimit="10" stroke-linecap="round" stroke-linejoin="round"/>
<path d="M9.2002 18H16.6252" stroke="white" stroke-width="2.25" stroke-miterlimit="10" stroke-linecap="round" stroke-linejoin="round"/>
<path d="M12.875 33V27.375" stroke="white" stroke-width="2.25" stroke-miterlimit="10" stroke-linecap="round" stroke-linejoin="round"/>
<path d="M2 33H35" stroke="#E9E9E9" stroke-width="2.25" stroke-miterlimit="10" stroke-linecap="round" stroke-linejoin="round"/>
<path d="M49.4551 27V10.2H52.6231V17.136H58.8631V10.2H62.0311V27H58.8631V20.016H52.6231V27H49.4551ZM70.9651 27.336C69.7811 27.336 68.7171 27.096 67.7731 26.616C66.8291 26.136 66.0851 25.44 65.5411 24.528C64.9971 23.616 64.7251 22.52 64.7251 21.24V20.856C64.7251 19.576 64.9971 18.48 65.5411 17.568C66.0851 16.656 66.8291 15.96 67.7731 15.48C68.7171 15 69.7811 14.76 70.9651 14.76C72.1491 14.76 73.2131 15 74.1571 15.48C75.1011 15.96 75.8451 16.656 76.3891 17.568C76.9331 18.48 77.2051 19.576 77.2051 20.856V21.24C77.2051 22.52 76.9331 23.616 76.3891 24.528C75.8451 25.44 75.1011 26.136 74.1571 26.616C73.2131 27.096 72.1491 27.336 70.9651 27.336ZM70.9651 24.648C71.8931 24.648 72.6611 24.352 73.2691 23.76C73.8771 23.152 74.1811 22.288 74.1811 21.168V20.928C74.1811 19.808 73.8771 18.952 73.2691 18.36C72.6771 17.752 71.9091 17.448 70.9651 17.448C70.0371 17.448 69.2691 17.752 68.6611 18.36C68.0531 18.952 67.7491 19.808 67.7491 20.928V21.168C67.7491 22.288 68.0531 23.152 68.6611 23.76C69.2691 24.352 70.0371 24.648 70.9651 24.648ZM79.9964 27V15.096H82.9724V16.392H83.4044C83.6124 15.992 83.9564 15.648 84.4364 15.36C84.9164 15.056 85.5484 14.904 86.3324 14.904C87.1804 14.904 87.8604 15.072 88.3724 15.408C88.8844 15.728 89.2764 16.152 89.5484 16.68H89.9804C90.2524 16.168 90.6364 15.744 91.1324 15.408C91.6284 15.072 92.3324 14.904 93.2444 14.904C93.9804 14.904 94.6444 15.064 95.2364 15.384C95.8444 15.688 96.3244 16.16 96.6764 16.8C97.0444 17.424 97.2284 18.216 97.2284 19.176V27H94.2044V19.392C94.2044 18.736 94.0364 18.248 93.7004 17.928C93.3644 17.592 92.8924 17.424 92.2844 17.424C91.5964 17.424 91.0604 17.648 90.6764 18.096C90.3084 18.528 90.1244 19.152 90.1244 19.968V27H87.1004V19.392C87.1004 18.736 86.9324 18.248 86.5964 17.928C86.2604 17.592 85.7884 17.424 85.1804 17.424C84.4924 17.424 83.9564 17.648 83.5724 18.096C83.2044 18.528 83.0204 19.152 83.0204 19.968V27H79.9964ZM105.905 27.336C104.721 27.336 103.673 27.088 102.761 26.592C101.865 26.08 101.161 25.368 100.649 24.456C100.153 23.528 99.9048 22.44 99.9048 21.192V20.904C99.9048 19.656 100.153 18.576 100.649 17.664C101.145 16.736 101.841 16.024 102.737 15.528C103.633 15.016 104.673 14.76 105.857 14.76C107.025 14.76 108.041 15.024 108.905 15.552C109.769 16.064 110.441 16.784 110.921 17.712C111.401 18.624 111.641 19.688 111.641 20.904V21.936H102.977C103.009 22.752 103.313 23.416 103.889 23.928C104.465 24.44 105.169 24.696 106.001 24.696C106.849 24.696 107.473 24.512 107.873 24.144C108.273 23.776 108.577 23.368 108.785 22.92L111.257 24.216C111.033 24.632 110.705 25.088 110.273 25.584C109.857 26.064 109.297 26.48 108.593 26.832C107.889 27.168 106.993 27.336 105.905 27.336ZM103.001 19.68H108.569C108.505 18.992 108.225 18.44 107.729 18.024C107.249 17.608 106.617 17.4 105.833 17.4C105.017 17.4 104.369 17.608 103.889 18.024C103.409 18.44 103.113 18.992 103.001 19.68ZM114.236 27V10.2H124.796V13.08H117.404V17.136H124.22V20.016H117.404V27H114.236ZM127.153 27V10.2H130.177V27H127.153ZM138.952 27.336C137.768 27.336 136.72 27.088 135.808 26.592C134.912 26.08 134.208 25.368 133.696 24.456C133.2 23.528 132.952 22.44 132.952 21.192V20.904C132.952 19.656 133.2 18.576 133.696 17.664C134.192 16.736 134.888 16.024 135.784 15.528C136.68 15.016 137.72 14.76 138.904 14.76C140.072 14.76 141.088 15.024 141.952 15.552C142.816 16.064 143.488 16.784 143.968 17.712C144.448 18.624 144.688 19.688 144.688 20.904V21.936H136.024C136.056 22.752 136.36 23.416 136.936 23.928C137.512 24.44 138.216 24.696 139.048 24.696C139.896 24.696 140.52 24.512 140.92 24.144C141.32 23.776 141.624 23.368 141.832 22.92L144.304 24.216C144.08 24.632 143.752 25.088 143.32 25.584C142.904 26.064 142.344 26.48 141.64 26.832C140.936 27.168 140.04 27.336 138.952 27.336ZM136.048 19.68H141.616C141.552 18.992 141.272 18.44 140.776 18.024C140.296 17.608 139.664 17.4 138.88 17.4C138.064 17.4 137.416 17.608 136.936 18.024C136.456 18.44 136.16 18.992 136.048 19.68ZM145.55 27L149.87 21L145.598 15.096H149.102L151.814 19.056H152.246L154.958 15.096H158.462L154.19 21L158.51 27H154.958L152.246 22.992H151.814L149.102 27H145.55Z" fill="white"/>
</svg>
