<svg width="159" height="36" viewBox="0 0 159 36" fill="none" xmlns="http://www.w3.org/2000/svg">
<path d="M29.6699 33.015V26.325" stroke="#222222" stroke-width="2.25" stroke-miterlimit="10" stroke-linecap="round" stroke-linejoin="round"/>
<path d="M30 18C28.3364 18 27 19.3224 27 20.9685V24.0315C27 25.6776 28.3364 27 30 27C31.6636 27 33 25.6776 33 24.0315V20.9685C33 19.3224 31.6636 18 30 18Z" fill="#934600"/>
<path d="M3.1499 33V9.04504C3.1499 6.03004 4.64998 4.51501 7.63498 4.51501H16.9799C19.9649 4.51501 21.4499 6.03004 21.4499 9.04504V33" stroke="#222222" stroke-width="2.25" stroke-miterlimit="10" stroke-linecap="round" stroke-linejoin="round"/>
<path d="M8.7002 12.375H16.1252" stroke="#222222" stroke-width="2.25" stroke-miterlimit="10" stroke-linecap="round" stroke-linejoin="round"/>
<path d="M8.7002 18H16.1252" stroke="#222222" stroke-width="2.25" stroke-miterlimit="10" stroke-linecap="round" stroke-linejoin="round"/>
<path d="M12.375 33V27.375" stroke="#222222" stroke-width="2.25" stroke-miterlimit="10" stroke-linecap="round" stroke-linejoin="round"/>
<path d="M1.5 33H34.5" stroke="#934600" stroke-width="2.25" stroke-miterlimit="10" stroke-linecap="round" stroke-linejoin="round"/>
<path d="M48.9551 27V10.2H52.1231V17.136H58.3631V10.2H61.5311V27H58.3631V20.016H52.1231V27H48.9551ZM70.4651 27.336C69.2811 27.336 68.2171 27.096 67.2731 26.616C66.3291 26.136 65.5851 25.44 65.0411 24.528C64.4971 23.616 64.2251 22.52 64.2251 21.24V20.856C64.2251 19.576 64.4971 18.48 65.0411 17.568C65.5851 16.656 66.3291 15.96 67.2731 15.48C68.2171 15 69.2811 14.76 70.4651 14.76C71.6491 14.76 72.7131 15 73.6571 15.48C74.6011 15.96 75.3451 16.656 75.8891 17.568C76.4331 18.48 76.7051 19.576 76.7051 20.856V21.24C76.7051 22.52 76.4331 23.616 75.8891 24.528C75.3451 25.44 74.6011 26.136 73.6571 26.616C72.7131 27.096 71.6491 27.336 70.4651 27.336ZM70.4651 24.648C71.3931 24.648 72.1611 24.352 72.7691 23.76C73.3771 23.152 73.6811 22.288 73.6811 21.168V20.928C73.6811 19.808 73.3771 18.952 72.7691 18.36C72.1771 17.752 71.4091 17.448 70.4651 17.448C69.5371 17.448 68.7691 17.752 68.1611 18.36C67.5531 18.952 67.2491 19.808 67.2491 20.928V21.168C67.2491 22.288 67.5531 23.152 68.1611 23.76C68.7691 24.352 69.5371 24.648 70.4651 24.648ZM79.4964 27V15.096H82.4724V16.392H82.9044C83.1124 15.992 83.4564 15.648 83.9364 15.36C84.4164 15.056 85.0484 14.904 85.8324 14.904C86.6804 14.904 87.3604 15.072 87.8724 15.408C88.3844 15.728 88.7764 16.152 89.0484 16.68H89.4804C89.7524 16.168 90.1364 15.744 90.6324 15.408C91.1284 15.072 91.8324 14.904 92.7444 14.904C93.4804 14.904 94.1444 15.064 94.7364 15.384C95.3444 15.688 95.8244 16.16 96.1764 16.8C96.5444 17.424 96.7284 18.216 96.7284 19.176V27H93.7044V19.392C93.7044 18.736 93.5364 18.248 93.2004 17.928C92.8644 17.592 92.3924 17.424 91.7844 17.424C91.0964 17.424 90.5604 17.648 90.1764 18.096C89.8084 18.528 89.6244 19.152 89.6244 19.968V27H86.6004V19.392C86.6004 18.736 86.4324 18.248 86.0964 17.928C85.7604 17.592 85.2884 17.424 84.6804 17.424C83.9924 17.424 83.4564 17.648 83.0724 18.096C82.7044 18.528 82.5204 19.152 82.5204 19.968V27H79.4964ZM105.405 27.336C104.221 27.336 103.173 27.088 102.261 26.592C101.365 26.08 100.661 25.368 100.149 24.456C99.6528 23.528 99.4048 22.44 99.4048 21.192V20.904C99.4048 19.656 99.6528 18.576 100.149 17.664C100.645 16.736 101.341 16.024 102.237 15.528C103.133 15.016 104.173 14.76 105.357 14.76C106.525 14.76 107.541 15.024 108.405 15.552C109.269 16.064 109.941 16.784 110.421 17.712C110.901 18.624 111.141 19.688 111.141 20.904V21.936H102.477C102.509 22.752 102.813 23.416 103.389 23.928C103.965 24.44 104.669 24.696 105.501 24.696C106.349 24.696 106.973 24.512 107.373 24.144C107.773 23.776 108.077 23.368 108.285 22.92L110.757 24.216C110.533 24.632 110.205 25.088 109.773 25.584C109.357 26.064 108.797 26.48 108.093 26.832C107.389 27.168 106.493 27.336 105.405 27.336ZM102.501 19.68H108.069C108.005 18.992 107.725 18.44 107.229 18.024C106.749 17.608 106.117 17.4 105.333 17.4C104.517 17.4 103.869 17.608 103.389 18.024C102.909 18.44 102.613 18.992 102.501 19.68ZM113.736 27V10.2H124.296V13.08H116.904V17.136H123.72V20.016H116.904V27H113.736ZM126.653 27V10.2H129.677V27H126.653ZM138.452 27.336C137.268 27.336 136.22 27.088 135.308 26.592C134.412 26.08 133.708 25.368 133.196 24.456C132.7 23.528 132.452 22.44 132.452 21.192V20.904C132.452 19.656 132.7 18.576 133.196 17.664C133.692 16.736 134.388 16.024 135.284 15.528C136.18 15.016 137.22 14.76 138.404 14.76C139.572 14.76 140.588 15.024 141.452 15.552C142.316 16.064 142.988 16.784 143.468 17.712C143.948 18.624 144.188 19.688 144.188 20.904V21.936H135.524C135.556 22.752 135.86 23.416 136.436 23.928C137.012 24.44 137.716 24.696 138.548 24.696C139.396 24.696 140.02 24.512 140.42 24.144C140.82 23.776 141.124 23.368 141.332 22.92L143.804 24.216C143.58 24.632 143.252 25.088 142.82 25.584C142.404 26.064 141.844 26.48 141.14 26.832C140.436 27.168 139.54 27.336 138.452 27.336ZM135.548 19.68H141.116C141.052 18.992 140.772 18.44 140.276 18.024C139.796 17.608 139.164 17.4 138.38 17.4C137.564 17.4 136.916 17.608 136.436 18.024C135.956 18.44 135.66 18.992 135.548 19.68ZM145.05 27L149.37 21L145.098 15.096H148.602L151.314 19.056H151.746L154.458 15.096H157.962L153.69 21L158.01 27H154.458L151.746 22.992H151.314L148.602 27H145.05Z" fill="black"/>
</svg>
