<svg width="32" height="32" viewBox="0 0 32 32" fill="none" xmlns="http://www.w3.org/2000/svg">
<path d="M23.8933 15.4934C23.8299 15.3297 23.7347 15.1802 23.6133 15.0534L16.9467 8.38675C16.8224 8.26243 16.6748 8.16382 16.5123 8.09654C16.3499 8.02926 16.1759 7.99463 16 7.99463C15.6449 7.99463 15.3044 8.13567 15.0533 8.38675C14.9291 8.51107 14.8304 8.65866 14.7631 8.82108C14.6959 8.98351 14.6612 9.1576 14.6612 9.33342C14.6612 9.68848 14.8023 10.029 15.0533 10.2801L19.4533 14.6667H9.33333C8.97971 14.6667 8.64057 14.8073 8.39052 15.0573C8.14048 15.3073 8 15.6465 8 16.0001C8 16.3537 8.14048 16.6929 8.39052 16.9429C8.64057 17.1929 8.97971 17.3334 9.33333 17.3334H19.4533L15.0533 21.7201C14.9284 21.8441 14.8292 21.9915 14.7615 22.1539C14.6937 22.3165 14.6589 22.4907 14.6589 22.6667C14.6589 22.8427 14.6937 23.017 14.7615 23.1795C14.8292 23.3419 14.9284 23.4894 15.0533 23.6134C15.1773 23.7383 15.3248 23.8375 15.4872 23.9053C15.6497 23.973 15.824 24.0078 16 24.0078C16.176 24.0078 16.3503 23.973 16.5128 23.9053C16.6752 23.8375 16.8227 23.7383 16.9467 23.6134L23.6133 16.9467C23.7347 16.8199 23.8299 16.6705 23.8933 16.5067C24.0267 16.1821 24.0267 15.8181 23.8933 15.4934Z" fill="#934600"/>
</svg>
