<svg width="20" height="20" viewBox="0 0 20 20" fill="none" xmlns="http://www.w3.org/2000/svg">
<path d="M10.0002 1.66663C8.23205 1.66663 6.53636 2.369 5.28612 3.61925C4.03587 4.86949 3.3335 6.56518 3.3335 8.33329C3.3335 12.8333 9.2085 17.9166 9.4585 18.1333C9.60941 18.2624 9.8015 18.3334 10.0002 18.3334C10.1988 18.3334 10.3909 18.2624 10.5418 18.1333C10.8335 17.9166 16.6668 12.8333 16.6668 8.33329C16.6668 6.56518 15.9644 4.86949 14.7142 3.61925C13.464 2.369 11.7682 1.66663 10.0002 1.66663ZM10.0002 16.375C8.22516 14.7083 5.00016 11.1166 5.00016 8.33329C5.00016 7.00721 5.52695 5.73544 6.46463 4.79776C7.40231 3.86008 8.67408 3.33329 10.0002 3.33329C11.3262 3.33329 12.598 3.86008 13.5357 4.79776C14.4734 5.73544 15.0002 7.00721 15.0002 8.33329C15.0002 11.1166 11.7752 14.7166 10.0002 16.375ZM10.0002 4.99996C9.34091 4.99996 8.69641 5.19546 8.14826 5.56173C7.6001 5.928 7.17285 6.44859 6.92056 7.05768C6.66827 7.66677 6.60226 8.33696 6.73088 8.98363C6.8595 9.63021 7.17696 10.2241 7.64314 10.6903C8.10931 11.1565 8.70325 11.474 9.34983 11.6025C9.9965 11.7312 10.6667 11.6652 11.2757 11.4129C11.8848 11.1606 12.4055 10.7334 12.7717 10.1852C13.138 9.63704 13.3335 8.99254 13.3335 8.33329C13.3335 7.44923 12.9823 6.60139 12.3572 5.97627C11.7321 5.35115 10.8842 4.99996 10.0002 4.99996ZM10.0002 9.99996C9.6705 9.99996 9.34833 9.90221 9.07425 9.71904C8.80016 9.53596 8.5865 9.27563 8.46033 8.97113C8.33425 8.66654 8.30121 8.33144 8.3655 8.00814C8.42983 7.68484 8.58858 7.38787 8.82166 7.15478C9.05475 6.92169 9.35175 6.76296 9.675 6.69865C9.99833 6.63434 10.3334 6.66735 10.638 6.79349C10.9425 6.91964 11.2028 7.13326 11.3859 7.40734C11.5691 7.68143 11.6668 8.00366 11.6668 8.33329C11.6668 8.77529 11.4912 9.19921 11.1787 9.51179C10.8661 9.82438 10.4422 9.99996 10.0002 9.99996Z" fill="#555555"/>
</svg>
