<svg width="25" height="24" viewBox="0 0 25 24" fill="none" xmlns="http://www.w3.org/2000/svg">
<path d="M22.2099 20.29L18.4999 16.61C19.94 14.8144 20.6374 12.5353 20.4487 10.2413C20.26 7.94733 19.1996 5.81281 17.4854 4.27667C15.7713 2.74053 13.5337 1.91954 11.2328 1.9825C8.93194 2.04546 6.74262 2.98759 5.11504 4.61517C3.48746 6.24275 2.54533 8.43207 2.48237 10.7329C2.41941 13.0338 3.2404 15.2714 4.77654 16.9855C6.31268 18.6997 8.4472 19.7601 10.7412 19.9488C13.0352 20.1375 15.3143 19.4401 17.1099 18L20.7899 21.68C20.8829 21.7738 20.9935 21.8481 21.1153 21.8989C21.2372 21.9497 21.3679 21.9758 21.4999 21.9758C21.6319 21.9758 21.7626 21.9497 21.8845 21.8989C22.0064 21.8481 22.117 21.7738 22.2099 21.68C22.3902 21.4936 22.4909 21.2444 22.4909 20.985C22.4909 20.7257 22.3902 20.4765 22.2099 20.29ZM11.4999 18C10.1154 18 8.76206 17.5895 7.61091 16.8203C6.45977 16.0511 5.56255 14.9579 5.03274 13.6788C4.50293 12.3997 4.3643 10.9923 4.6344 9.63439C4.9045 8.27653 5.57119 7.02925 6.55016 6.05028C7.52913 5.07131 8.7764 4.40463 10.1343 4.13453C11.4922 3.86443 12.8996 4.00306 14.1787 4.53287C15.4578 5.06268 16.551 5.95989 17.3202 7.11103C18.0894 8.26218 18.4999 9.61556 18.4999 11C18.4999 12.8565 17.7624 14.637 16.4497 15.9498C15.1369 17.2625 13.3564 18 11.4999 18Z" fill="white"/>
</svg>
