<svg width="18" height="18" viewBox="0 0 18 18" fill="none" xmlns="http://www.w3.org/2000/svg">
<path d="M16.5001 7.25249C16.4527 7.1153 16.3666 6.99481 16.2521 6.90562C16.1376 6.81642 15.9997 6.76236 15.8551 6.74999L11.5876 6.12749L9.67512 2.24999C9.6137 2.12318 9.51777 2.01625 9.39845 1.94142C9.27905 1.86659 9.14097 1.8269 9.00012 1.8269C8.8592 1.8269 8.7212 1.86659 8.6018 1.94142C8.4824 2.01625 8.38655 2.12318 8.32512 2.24999L6.41261 6.11999L2.14511 6.74999C2.0063 6.76972 1.8758 6.82796 1.76842 6.91811C1.66103 7.00826 1.58108 7.1267 1.53761 7.25999C1.49781 7.39025 1.49424 7.52885 1.52728 7.661C1.56031 7.79315 1.6287 7.91375 1.72511 8.00997L4.82261 11.01L4.07261 15.27C4.04583 15.4106 4.05985 15.5559 4.11301 15.6888C4.16617 15.8217 4.25624 15.9366 4.37261 16.02C4.48602 16.101 4.61978 16.1489 4.75889 16.1582C4.898 16.1675 5.03693 16.1378 5.16011 16.0725L9.00012 14.07L12.8251 16.08C12.9303 16.1394 13.0492 16.1703 13.1701 16.17C13.329 16.1706 13.4839 16.1206 13.6126 16.0275C13.7289 15.9441 13.819 15.8292 13.8722 15.6963C13.9254 15.5634 13.9394 15.4181 13.9126 15.2775L13.1626 11.0175L16.2601 8.01747C16.3684 7.92575 16.4484 7.80515 16.4909 7.66977C16.5334 7.53432 16.5366 7.38965 16.5001 7.25249Z" fill="#DE8500"/>
</svg>
